<svg width="200" height="60" viewBox="0 0 200 60" fill="none" xmlns="http://www.w3.org/2000/svg">
  <path d="M15.4 0H32.3V16.9H15.4V0Z" fill="black"/>
  <path d="M15.4 24.8C15.4 30.6 20.2 35.4 26 35.4H32.3V50.1C32.3 55.9 27.5 60.7 21.7 60.7C15.9 60.7 11.1 55.9 11.1 50.1V24.8H15.4Z" fill="black"/>
  <path d="M49.3 16.4V44.7C49.3 48.5 51 51.7 54.8 51.7C58.6 51.7 60.3 48.5 60.3 44.7V16.4H74.5V43.9C74.5 55.1 67.4 61.1 54.8 61.1C42.2 61.1 35.1 55.1 35.1 43.9V16.4H49.3Z" fill="black"/>
  <path d="M78.3 16.4H92.5V60.5H78.3V16.4Z" fill="black"/>
  <path d="M106.8 16.4V60.5H95.6V16.4H106.8Z" fill="black"/>
  <path d="M123.6 0H137.9V10.8H123.6V0Z" fill="black"/>
  <path d="M123.6 16.4H137.9V60.5H123.6V16.4Z" fill="black"/>
  <path d="M151.8 37.6C151.8 45.5 156.4 51.1 163.5 51.1C170.6 51.1 175.2 45.5 175.2 37.6C175.2 29.7 170.6 24.1 163.5 24.1C156.4 24.1 151.8 29.7 151.8 37.6ZM137.9 37.4C137.9 24.3 148.5 15.6 163.5 15.6C178.5 15.6 189.1 24.3 189.1 37.4C189.1 50.5 178.5 59.2 163.5 59.2C148.5 59.2 137.9 50.5 137.9 37.4Z" fill="black"/>
</svg>
